<?xml version="1.0" standalone="no"?>
<!DOCTYPE svg PUBLIC "-//W3C//DTD SVG 20010904//EN"
 "http://www.w3.org/TR/2001/REC-SVG-20010904/DTD/svg10.dtd">
<svg version="1.0" xmlns="http://www.w3.org/2000/svg"
 width="400.000000pt" height="400.000000pt" viewBox="0 0 400.000000 400.000000"
 preserveAspectRatio="xMidYMid meet">
<metadata>
Created by potrace 1.11, written by Peter Selinger 2001-2013
</metadata>
<g transform="translate(0.000000,400.000000) scale(0.100000,-0.100000)"
fill="#000000" stroke="none">
<path d="M0 2000 l0 -2000 2000 0 2000 0 0 2000 0 2000 -2000 0 -2000 0 0
-2000z m3025 1349 c25 -34 45 -68 45 -76 0 -9 -30 -48 -68 -87 -108 -114 -148
-211 -281 -676 -188 -660 -366 -1339 -421 -1612 -40 -200 -44 -210 -90 -252
-41 -36 -83 -50 -141 -44 -32 3 -36 8 -81 98 -48 95 -153 339 -384 887 -273
649 -494 1097 -593 1202 -57 61 -71 83 -71 108 0 59 93 133 168 133 35 0 45
-5 72 -37 38 -47 191 -349 294 -580 41 -94 157 -369 257 -610 284 -688 380
-917 389 -926 4 -5 11 13 15 40 17 116 130 591 240 1008 207 788 298 1082 400
1291 49 100 83 147 130 175 51 32 70 25 120 -42z"/>
</g>
</svg>
